<svg xmlns="http://www.w3.org/2000/svg" viewBox="0 0 240 224" width="240" height="224">
  <style>rect { shape-rendering: crispEdges; }</style>
  <rect x="32" y="16" width="16" height="16" fill="#ff1493" />
  <rect x="192" y="16" width="16" height="16" fill="#ff1493" />
  <rect x="32" y="32" width="16" height="16" fill="#ff1493" />
  <rect x="48" y="32" width="16" height="16" fill="#ff1493" />
  <rect x="176" y="32" width="16" height="16" fill="#ff1493" />
  <rect x="192" y="32" width="16" height="16" fill="#ff1493" />
  <rect x="32" y="48" width="16" height="16" fill="#ff1493" />
  <rect x="48" y="48" width="16" height="16" fill="#ff69b4" />
  <rect x="64" y="48" width="16" height="16" fill="#ff1493" />
  <rect x="160" y="48" width="16" height="16" fill="#ff1493" />
  <rect x="176" y="48" width="16" height="16" fill="#ff69b4" />
  <rect x="192" y="48" width="16" height="16" fill="#ff1493" />
  <rect x="32" y="64" width="16" height="16" fill="#ff1493" />
  <rect x="48" y="64" width="16" height="16" fill="#ff69b4" />
  <rect x="64" y="64" width="16" height="16" fill="#ff69b4" />
  <rect x="80" y="64" width="16" height="16" fill="#ff1493" />
  <rect x="144" y="64" width="16" height="16" fill="#ff1493" />
  <rect x="160" y="64" width="16" height="16" fill="#ff69b4" />
  <rect x="176" y="64" width="16" height="16" fill="#ff69b4" />
  <rect x="192" y="64" width="16" height="16" fill="#ff1493" />
  <rect x="32" y="80" width="16" height="16" fill="#ff1493" />
  <rect x="48" y="80" width="16" height="16" fill="#000000" />
  <rect x="64" y="80" width="16" height="16" fill="#000000" />
  <rect x="80" y="80" width="16" height="16" fill="#ff1493" />
  <rect x="96" y="80" width="16" height="16" fill="#ff1493" />
  <rect x="112" y="80" width="16" height="16" fill="#ff1493" />
  <rect x="128" y="80" width="16" height="16" fill="#ff1493" />
  <rect x="144" y="80" width="16" height="16" fill="#ff1493" />
  <rect x="160" y="80" width="16" height="16" fill="#000000" />
  <rect x="176" y="80" width="16" height="16" fill="#000000" />
  <rect x="192" y="80" width="16" height="16" fill="#ff1493" />
  <rect x="16" y="96" width="16" height="16" fill="#ff1493" />
  <rect x="32" y="96" width="16" height="16" fill="#000000" />
  <rect x="48" y="96" width="16" height="16" fill="#000000" />
  <rect x="64" y="96" width="16" height="16" fill="#000000" />
  <rect x="80" y="96" width="16" height="16" fill="#000000" />
  <rect x="96" y="96" width="16" height="16" fill="#000000" />
  <rect x="112" y="96" width="16" height="16" fill="#000000" />
  <rect x="128" y="96" width="16" height="16" fill="#000000" />
  <rect x="144" y="96" width="16" height="16" fill="#000000" />
  <rect x="160" y="96" width="16" height="16" fill="#000000" />
  <rect x="176" y="96" width="16" height="16" fill="#000000" />
  <rect x="192" y="96" width="16" height="16" fill="#000000" />
  <rect x="208" y="96" width="16" height="16" fill="#ff1493" />
  <rect x="16" y="112" width="16" height="16" fill="#ff1493" />
  <rect x="32" y="112" width="16" height="16" fill="#000000" />
  <rect x="48" y="112" width="16" height="16" fill="#000000" />
  <rect x="64" y="112" width="16" height="16" fill="#ffffff" />
  <rect x="80" y="112" width="16" height="16" fill="#ffffff" />
  <rect x="96" y="112" width="16" height="16" fill="#000000" />
  <rect x="112" y="112" width="16" height="16" fill="#000000" />
  <rect x="128" y="112" width="16" height="16" fill="#000000" />
  <rect x="144" y="112" width="16" height="16" fill="#ffffff" />
  <rect x="160" y="112" width="16" height="16" fill="#ffffff" />
  <rect x="176" y="112" width="16" height="16" fill="#000000" />
  <rect x="192" y="112" width="16" height="16" fill="#000000" />
  <rect x="208" y="112" width="16" height="16" fill="#ff1493" />
  <rect x="16" y="128" width="16" height="16" fill="#ff1493" />
  <rect x="32" y="128" width="16" height="16" fill="#000000" />
  <rect x="48" y="128" width="16" height="16" fill="#000000" />
  <rect x="64" y="128" width="16" height="16" fill="#ffffff" />
  <rect x="80" y="128" width="16" height="16" fill="#ff1493" />
  <rect x="96" y="128" width="16" height="16" fill="#000000" />
  <rect x="112" y="128" width="16" height="16" fill="#ff69b4" />
  <rect x="128" y="128" width="16" height="16" fill="#000000" />
  <rect x="144" y="128" width="16" height="16" fill="#ffffff" />
  <rect x="160" y="128" width="16" height="16" fill="#ff1493" />
  <rect x="176" y="128" width="16" height="16" fill="#000000" />
  <rect x="192" y="128" width="16" height="16" fill="#000000" />
  <rect x="208" y="128" width="16" height="16" fill="#ff1493" />
  <rect x="16" y="144" width="16" height="16" fill="#ff1493" />
  <rect x="32" y="144" width="16" height="16" fill="#ff1493" />
  <rect x="48" y="144" width="16" height="16" fill="#ff1493" />
  <rect x="64" y="144" width="16" height="16" fill="#000000" />
  <rect x="80" y="144" width="16" height="16" fill="#000000" />
  <rect x="96" y="144" width="16" height="16" fill="#000000" />
  <rect x="112" y="144" width="16" height="16" fill="#000000" />
  <rect x="128" y="144" width="16" height="16" fill="#000000" />
  <rect x="144" y="144" width="16" height="16" fill="#000000" />
  <rect x="160" y="144" width="16" height="16" fill="#000000" />
  <rect x="176" y="144" width="16" height="16" fill="#ff1493" />
  <rect x="192" y="144" width="16" height="16" fill="#ff1493" />
  <rect x="208" y="144" width="16" height="16" fill="#ff1493" />
  <rect x="32" y="160" width="16" height="16" fill="#ff1493" />
  <rect x="48" y="160" width="16" height="16" fill="#000000" />
  <rect x="64" y="160" width="16" height="16" fill="#000000" />
  <rect x="80" y="160" width="16" height="16" fill="#000000" />
  <rect x="96" y="160" width="16" height="16" fill="#000000" />
  <rect x="112" y="160" width="16" height="16" fill="#000000" />
  <rect x="128" y="160" width="16" height="16" fill="#000000" />
  <rect x="144" y="160" width="16" height="16" fill="#000000" />
  <rect x="160" y="160" width="16" height="16" fill="#000000" />
  <rect x="176" y="160" width="16" height="16" fill="#000000" />
  <rect x="192" y="160" width="16" height="16" fill="#ff1493" />
  <rect x="48" y="176" width="16" height="16" fill="#ff1493" />
  <rect x="64" y="176" width="16" height="16" fill="#ff1493" />
  <rect x="80" y="176" width="16" height="16" fill="#ff1493" />
  <rect x="96" y="176" width="16" height="16" fill="#ff1493" />
  <rect x="112" y="176" width="16" height="16" fill="#ff1493" />
  <rect x="128" y="176" width="16" height="16" fill="#ff1493" />
  <rect x="144" y="176" width="16" height="16" fill="#ff1493" />
  <rect x="160" y="176" width="16" height="16" fill="#ff1493" />
  <rect x="176" y="176" width="16" height="16" fill="#ff1493" />
</svg>