<svg xmlns="http://www.w3.org/2000/svg" viewBox="0 0 432 160" role="img" aria-label="vvkit" shape-rendering="crispEdges">
  <title>vvkit</title>
  <style>
    .ink { fill: #1a0510 }
    @media (prefers-color-scheme: dark) { .ink { fill: #ffffff } }
  </style>
  <rect x="16" y="64" width="16" height="16" class="ink"/>
  <rect x="80" y="64" width="16" height="16" class="ink"/>
  <rect x="16" y="80" width="16" height="16" class="ink"/>
  <rect x="80" y="80" width="16" height="16" class="ink"/>
  <rect x="32" y="96" width="16" height="16" class="ink"/>
  <rect x="64" y="96" width="16" height="16" class="ink"/>
  <rect x="32" y="112" width="16" height="16" class="ink"/>
  <rect x="64" y="112" width="16" height="16" class="ink"/>
  <rect x="48" y="128" width="16" height="16" class="ink"/>
  <rect x="112" y="64" width="16" height="16" class="ink"/>
  <rect x="176" y="64" width="16" height="16" class="ink"/>
  <rect x="112" y="80" width="16" height="16" class="ink"/>
  <rect x="176" y="80" width="16" height="16" class="ink"/>
  <rect x="128" y="96" width="16" height="16" class="ink"/>
  <rect x="160" y="96" width="16" height="16" class="ink"/>
  <rect x="128" y="112" width="16" height="16" class="ink"/>
  <rect x="160" y="112" width="16" height="16" class="ink"/>
  <rect x="144" y="128" width="16" height="16" class="ink"/>
  <rect x="208" y="16" width="16" height="16" class="ink"/>
  <rect x="208" y="32" width="16" height="16" class="ink"/>
  <rect x="208" y="48" width="16" height="16" class="ink"/>
  <rect x="208" y="64" width="16" height="16" class="ink"/>
  <rect x="272" y="64" width="16" height="16" class="ink"/>
  <rect x="208" y="80" width="16" height="16" class="ink"/>
  <rect x="256" y="80" width="16" height="16" class="ink"/>
  <rect x="208" y="96" width="16" height="16" class="ink"/>
  <rect x="224" y="96" width="16" height="16" class="ink"/>
  <rect x="240" y="96" width="16" height="16" class="ink"/>
  <rect x="208" y="112" width="16" height="16" class="ink"/>
  <rect x="256" y="112" width="16" height="16" class="ink"/>
  <rect x="208" y="128" width="16" height="16" class="ink"/>
  <rect x="272" y="128" width="16" height="16" class="ink"/>
  <rect x="320" y="64" width="16" height="16" class="ink"/>
  <rect x="320" y="80" width="16" height="16" class="ink"/>
  <rect x="320" y="96" width="16" height="16" class="ink"/>
  <rect x="320" y="112" width="16" height="16" class="ink"/>
  <rect x="320" y="128" width="16" height="16" class="ink"/>
  <rect x="384" y="16" width="16" height="16" class="ink"/>
  <rect x="384" y="32" width="16" height="16" class="ink"/>
  <rect x="384" y="48" width="16" height="16" class="ink"/>
  <rect x="368" y="64" width="16" height="16" class="ink"/>
  <rect x="384" y="64" width="16" height="16" class="ink"/>
  <rect x="400" y="64" width="16" height="16" class="ink"/>
  <rect x="384" y="80" width="16" height="16" class="ink"/>
  <rect x="384" y="96" width="16" height="16" class="ink"/>
  <rect x="384" y="112" width="16" height="16" class="ink"/>
  <rect x="400" y="128" width="16" height="16" class="ink"/>
  <rect x="320" y="32" width="16" height="16" fill="#ff1493"/>
</svg>
